<svg width="166" height="36" viewBox="0 0 166 36" fill="none" xmlns="http://www.w3.org/2000/svg">
<path fill-rule="evenodd" clip-rule="evenodd" d="M27.8333 18C27.8333 25.0877 22.0877 30.8333 15 30.8333C7.91234 30.8333 2.16666 25.0877 2.16666 18C2.16666 10.9123 7.91234 5.16666 15 5.16666C22.0877 5.16666 27.8333 10.9123 27.8333 18ZM30 18C30 26.2843 23.2843 33 15 33C6.71573 33 0 26.2843 0 18C0 9.71573 6.71573 3 15 3C23.2843 3 30 9.71573 30 18ZM23.2759 11.2759C23.2759 12.1329 22.5812 12.8276 21.7242 12.8276C20.8672 12.8276 20.1725 12.1329 20.1725 11.2759C20.1725 10.4189 20.8672 9.72418 21.7242 9.72418C22.5812 9.72418 23.2759 10.4189 23.2759 11.2759ZM10.4879 19.209C11.1556 21.7009 13.717 23.1797 16.2089 22.512C18.7008 21.8443 20.1796 19.2829 19.5119 16.791C18.8442 14.2991 16.2828 12.8203 13.7909 13.488C11.299 14.1557 9.82015 16.7171 10.4879 19.209ZM8.39503 19.7698C9.37244 23.4175 13.1219 25.5823 16.7696 24.6049C20.4174 23.6274 22.5821 19.878 21.6047 16.2302C20.6273 12.5825 16.8779 10.4177 13.2301 11.3952C9.58236 12.3726 7.41762 16.122 8.39503 19.7698Z" fill="url(#paint0_linear_1501_419)"/>
<path d="M46.7369 28.3958C45.2101 28.3958 43.8623 28.1225 42.6936 27.5759C41.5249 27.0292 40.6107 26.247 39.951 25.2291C39.2912 24.2112 38.9613 22.9859 38.9613 21.5533V20.7616H42.6371V21.5533C42.6371 22.7409 43.0047 23.6362 43.7398 24.2394C44.475 24.8238 45.474 25.116 46.7369 25.116C48.0187 25.116 48.9707 24.8615 49.5927 24.3525C50.2336 23.8436 50.5541 23.1933 50.5541 22.4016C50.5541 21.8549 50.3938 21.4119 50.0734 21.0727C49.7718 20.7334 49.3194 20.46 48.7162 20.2527C48.1318 20.0265 47.4155 19.8191 46.5673 19.6306L45.917 19.4893C44.5598 19.1877 43.3911 18.8107 42.4109 18.3583C41.4495 17.887 40.705 17.2744 40.1772 16.5204C39.6682 15.7664 39.4137 14.7862 39.4137 13.5798C39.4137 12.3734 39.6965 11.3461 40.262 10.4978C40.8463 9.63074 41.6569 8.97099 42.6936 8.5186C43.7492 8.04735 44.9839 7.81172 46.3976 7.81172C47.8114 7.81172 49.0649 8.05677 50.1582 8.54687C51.2704 9.01812 52.1374 9.73442 52.7595 10.6958C53.4004 11.6383 53.7208 12.8258 53.7208 14.2584V15.1066H50.0451V14.2584C50.0451 13.5044 49.8943 12.9012 49.5927 12.4488C49.31 11.9776 48.8953 11.6383 48.3486 11.4309C47.802 11.2047 47.1516 11.0916 46.3976 11.0916C45.2666 11.0916 44.4278 11.3084 43.8812 11.7419C43.3534 12.1566 43.0895 12.7316 43.0895 13.4667C43.0895 13.9568 43.212 14.3715 43.4571 14.7108C43.721 15.0501 44.1074 15.3328 44.6163 15.559C45.1253 15.7852 45.7756 15.9832 46.5673 16.1528L47.2176 16.2942C48.6314 16.5958 49.8566 16.9822 50.8934 17.4535C51.9489 17.9247 52.7689 18.5468 53.3533 19.3196C53.9376 20.0925 54.2298 21.0821 54.2298 22.2885C54.2298 23.4949 53.9188 24.5599 53.2967 25.4835C52.6935 26.3883 51.8264 27.1046 50.6954 27.6324C49.5833 28.1414 48.2638 28.3958 46.7369 28.3958ZM56.2782 28V8.20757H59.8408V15.7004H60.3498C60.5006 15.3988 60.7362 15.0972 61.0566 14.7956C61.3771 14.494 61.8012 14.249 62.329 14.0605C62.8757 13.8531 63.5637 13.7495 64.3931 13.7495C65.4864 13.7495 66.4383 14.0039 67.2488 14.5129C68.0782 15.003 68.7191 15.691 69.1715 16.5769C69.6239 17.444 69.8501 18.4619 69.8501 19.6306V28H66.2875V19.9134C66.2875 18.8578 66.0236 18.0661 65.4958 17.5383C64.9868 17.0105 64.2517 16.7466 63.2903 16.7466C62.1971 16.7466 61.3488 17.1142 60.7456 17.8493C60.1424 18.5656 59.8408 19.5741 59.8408 20.8747V28H56.2782ZM79.5261 28.3958C78.1312 28.3958 76.8777 28.1131 75.7655 27.5476C74.6534 26.9821 73.7769 26.1621 73.136 25.0877C72.4951 24.0132 72.1746 22.722 72.1746 21.214V20.7616C72.1746 19.2536 72.4951 17.9624 73.136 16.888C73.7769 15.8135 74.6534 14.9935 75.7655 14.428C76.8777 13.8626 78.1312 13.5798 79.5261 13.5798C80.921 13.5798 82.1745 13.8626 83.2867 14.428C84.3988 14.9935 85.2753 15.8135 85.9162 16.888C86.5571 17.9624 86.8776 19.2536 86.8776 20.7616V21.214C86.8776 22.722 86.5571 24.0132 85.9162 25.0877C85.2753 26.1621 84.3988 26.9821 83.2867 27.5476C82.1745 28.1131 80.921 28.3958 79.5261 28.3958ZM79.5261 25.2291C80.6194 25.2291 81.5242 24.8803 82.2405 24.1829C82.9568 23.4666 83.3149 22.4487 83.3149 21.1292V20.8465C83.3149 19.527 82.9568 18.5185 82.2405 17.821C81.543 17.1047 80.6382 16.7466 79.5261 16.7466C78.4328 16.7466 77.528 17.1047 76.8117 17.821C76.0954 18.5185 75.7373 19.527 75.7373 20.8465V21.1292C75.7373 22.4487 76.0954 23.4666 76.8117 24.1829C77.528 24.8803 78.4328 25.2291 79.5261 25.2291ZM94.2207 28C93.297 28 92.543 27.7173 91.9587 27.1518C91.3932 26.5674 91.1104 25.7946 91.1104 24.8332V16.9162H87.6043V13.9757H91.1104V9.62132H94.6731V13.9757H98.5184V16.9162H94.6731V24.2112C94.6731 24.7767 94.937 25.0594 95.4648 25.0594H98.1791V28H94.2207ZM99.7195 21.0444V20.592C99.7195 19.1217 100.012 17.8682 100.596 16.8314C101.18 15.7758 101.953 14.9747 102.915 14.428C103.895 13.8626 104.96 13.5798 106.11 13.5798C107.391 13.5798 108.362 13.806 109.022 14.2584C109.682 14.7108 110.162 15.182 110.464 15.6721H110.973V13.9757H114.479V30.4882C114.479 31.4495 114.196 32.213 113.631 32.7785C113.065 33.3628 112.311 33.655 111.369 33.655H101.981V30.5447H110.125C110.652 30.5447 110.916 30.262 110.916 29.6965V26.049H110.407C110.219 26.3506 109.955 26.6617 109.616 26.9821C109.276 27.2837 108.824 27.5382 108.258 27.7455C107.693 27.9529 106.977 28.0565 106.11 28.0565C104.96 28.0565 103.895 27.7832 102.915 27.2366C101.953 26.6711 101.18 25.87 100.596 24.8332C100.012 23.7776 99.7195 22.5147 99.7195 21.0444ZM107.127 24.9463C108.221 24.9463 109.135 24.5976 109.87 23.9001C110.605 23.2027 110.973 22.2225 110.973 20.9596V20.6768C110.973 19.395 110.605 18.4148 109.87 17.7362C109.154 17.0388 108.24 16.69 107.127 16.69C106.034 16.69 105.12 17.0388 104.385 17.7362C103.65 18.4148 103.282 19.395 103.282 20.6768V20.9596C103.282 22.2225 103.65 23.2027 104.385 23.9001C105.12 24.5976 106.034 24.9463 107.127 24.9463ZM117.581 28V13.9757H121.087V15.559H121.596C121.803 14.9935 122.142 14.5788 122.614 14.3149C123.104 14.0511 123.669 13.9191 124.31 13.9191H126.007V17.0859H124.253C123.349 17.0859 122.604 17.3309 122.02 17.821C121.435 18.2923 121.143 19.0274 121.143 20.0265V28H117.581ZM131.966 28.3958C130.967 28.3958 130.071 28.2262 129.28 27.8869C128.488 27.5288 127.857 27.0198 127.385 26.3601C126.933 25.6815 126.707 24.8615 126.707 23.9001C126.707 22.9388 126.933 22.1377 127.385 21.4968C127.857 20.837 128.497 20.3469 129.308 20.0265C130.137 19.6872 131.08 19.5175 132.136 19.5175H135.981V18.7258C135.981 18.0661 135.774 17.5289 135.359 17.1142C134.944 16.6806 134.284 16.4638 133.38 16.4638C132.494 16.4638 131.834 16.6712 131.4 17.0859C130.967 17.4817 130.684 18.0001 130.552 18.641L127.272 17.5383C127.498 16.822 127.857 16.1717 128.347 15.5873C128.856 14.9841 129.525 14.5034 130.354 14.1453C131.202 13.7683 132.23 13.5798 133.436 13.5798C135.283 13.5798 136.744 14.0416 137.819 14.9653C138.893 15.8889 139.43 17.2273 139.43 18.9803V24.2112C139.43 24.7767 139.694 25.0594 140.222 25.0594H141.353V28H138.978C138.281 28 137.706 27.8304 137.253 27.4911C136.801 27.1518 136.575 26.6994 136.575 26.1339V26.1056H136.037C135.962 26.3318 135.792 26.6334 135.529 27.0104C135.265 27.3685 134.85 27.689 134.284 27.9717C133.719 28.2545 132.946 28.3958 131.966 28.3958ZM132.588 25.5118C133.587 25.5118 134.398 25.2385 135.02 24.6918C135.66 24.1263 135.981 23.3818 135.981 22.4581V22.1754H132.39C131.73 22.1754 131.212 22.3167 130.835 22.5995C130.458 22.8822 130.269 23.2781 130.269 23.787C130.269 24.296 130.467 24.7107 130.863 25.0311C131.259 25.3516 131.834 25.5118 132.588 25.5118ZM143.11 28V13.9757H146.616V15.5025H147.125C147.37 15.0312 147.775 14.626 148.341 14.2867C148.906 13.9285 149.651 13.7495 150.574 13.7495C151.573 13.7495 152.374 13.9474 152.978 14.3432C153.581 14.7202 154.043 15.2197 154.363 15.8418H154.872C155.193 15.2386 155.645 14.7391 156.229 14.3432C156.814 13.9474 157.643 13.7495 158.717 13.7495C159.585 13.7495 160.367 13.938 161.064 14.3149C161.781 14.6731 162.346 15.2292 162.761 15.9832C163.194 16.7183 163.411 17.6514 163.411 18.7824V28H159.848V19.0369C159.848 18.264 159.651 17.6891 159.255 17.3121C158.859 16.9162 158.303 16.7183 157.586 16.7183C156.776 16.7183 156.144 16.9822 155.692 17.51C155.259 18.019 155.042 18.7541 155.042 19.7155V28H151.479V19.0369C151.479 18.264 151.281 17.6891 150.885 17.3121C150.489 16.9162 149.933 16.7183 149.217 16.7183C148.407 16.7183 147.775 16.9822 147.323 17.51C146.889 18.019 146.672 18.7541 146.672 19.7155V28H143.11Z" fill="white"/>
<defs>
<linearGradient id="paint0_linear_1501_419" x1="15" y1="3" x2="15" y2="33" gradientUnits="userSpaceOnUse">
<stop stop-color="#877EFF"/>
<stop offset="0.461458" stop-color="#685DFF"/>
<stop offset="1" stop-color="#3121FF"/>
</linearGradient>
</defs>
</svg>
